<svg xmlns="http://www.w3.org/2000/svg" version="1.1" width="150" height="200">
	<g id="balloon-svg">
		<!-- Strings -->
		<line x1="66" x2="50" y1="140" y2="90" stroke="#8d9491" />
		<line x1="84" x2="100" y1="140" y2="90" stroke="#8d9491" />
		<line x1="70" x2="60" y1="140" y2="90" stroke="#8d9491" />
		<line x1="80" x2="90" y1="140" y2="90" stroke="#8d9491" />
		<line x1="75" x2="75" y1="140" y2="90" stroke="#8d9491" />
		<!-- Balloon -->
		<path d="M 110,25 C 110,25 120,25 125,45 C 125,45 135,70 100,100 L 100,100 95,100 Z" fill="#e35102" />
		<path d="M 40,25 C 40,25 30,25 25,45 C 25,45 15,70 50,100 L 50,100 55,100  Z" fill="#e35102" />
		<path d="M 105,15 C 105,15 115,15 120,35 C 120,35 130,60 95,100 L 95,100 80,100 Z" fill="#f0bb4a" />
		<path d="M 45,15 C 45,15 35,15 30,35 C 30,35 20,60 55,100 L 55,100 70,100 Z" fill="#f0bb4a" />
		<path d="M 90,5 C 90,5 100,5 105,15 C 105,15 125,60 85,100 L 85,100 80,100 Z" fill="#e35102" />
		<path d="M 60,5 C 60,5 50,5 45,15 C 45,15 25,60 65,100 L 65,100 70,100 Z" fill="#e35102" />
		<path d="M 75,0 C 75,0 85,0 90,5 C 90,5 115,40 80,100 L 80,100 70,100 L 70,100 75,0 C 75,0 65,0 60,5 C 60,5 35,40 70,100 Z" fill="#f0bb4a" />
		<!-- Balloon base -->
		<path d="M 50,100 C 50,100 75,90 100,100 L 100,100 90,110 C 90,110 75,105 60,110 L 60,110 50,100 Z" fill="#e35102" />
		<!-- Base -->
		<path d="M 65,140 L 65,140 85,140 L 85,140 80,155 L 80,155 70,155 L 70,155 65,140 Z" fill="#f0bb4a" />
		<path d="M 65,140 L 65,140 85,140 L 85,140 83,143 L 83,143 67,143 L 67,143 65,140 Z" fill="#d19d34" />
	</g>
</svg>