<svg xmlns="http://www.w3.org/2000/svg" version="1.1" width="550" height="400">
	<!-- Building 1 -->
	<polygon points="10,400 10,50 20,50 20,40 100,40 100,150 150,150 150,160 160,160 160,400 10,400" style="fill: #0b2238"/>
	<rect height="5" width="5" x="25" y="60" fill="#cfc853"/>
	<rect height="5" width="5" x="35" y="60" fill="#cfc853"/>
	<rect height="5" width="5" x="45" y="60" fill="#cfc853"/>
	<rect height="5" width="5" x="65" y="60" fill="#cfc853"/>
	<rect height="5" width="5" x="25" y="70" fill="#cfc853"/>
	<rect height="5" width="5" x="45" y="70" fill="#cfc853"/>
	<rect height="5" width="5" x="55" y="70" fill="#cfc853"/>
	<rect height="5" width="5" x="65" y="70" fill="#cfc853"/>
	<rect height="5" width="5" x="25" y="80" fill="#cfc853"/>
	<rect height="5" width="5" x="35" y="80" fill="#cfc853"/>
	<rect height="5" width="5" x="55" y="80" fill="#cfc853"/>
	<rect height="5" width="5" x="65" y="80" fill="#cfc853"/>
	<rect height="5" width="5" x="25" y="90" fill="#cfc853"/>
	<rect height="5" width="5" x="35" y="90" fill="#cfc853"/>
	<rect height="5" width="5" x="45" y="90" fill="#cfc853"/>
	<rect height="5" width="5" x="55" y="90" fill="#cfc853"/>
	<rect height="5" width="5" x="65" y="90" fill="#cfc853"/>
	<rect height="5" width="5" x="25" y="100" fill="#cfc853"/>
	<rect height="5" width="5" x="35" y="100" fill="#cfc853"/>
	<rect height="5" width="5" x="45" y="100" fill="#cfc853"/>
	<rect height="5" width="5" x="65" y="100" fill="#cfc853"/>
	<rect height="5" width="5" x="75" y="100" fill="#cfc853"/>
	<rect height="5" width="5" x="85" y="100" fill="#cfc853"/>
	<rect height="5" width="5" x="25" y="110" fill="#cfc853"/>
	<rect height="5" width="5" x="35" y="110" fill="#cfc853"/>
	<rect height="5" width="5" x="45" y="110" fill="#cfc853"/>
	<rect height="5" width="5" x="55" y="110" fill="#cfc853"/>
	<rect height="5" width="5" x="65" y="110" fill="#cfc853"/>
	<rect height="5" width="5" x="85" y="110" fill="#cfc853"/>
	<rect height="5" width="5" x="25" y="120" fill="#cfc853"/>
	<rect height="5" width="5" x="35" y="120" fill="#cfc853"/>
	<rect height="5" width="5" x="65" y="120" fill="#cfc853"/>
	<rect height="5" width="5" x="75" y="120" fill="#cfc853"/>
	<rect height="5" width="5" x="85" y="120" fill="#cfc853"/>
	<rect height="5" width="5" x="25" y="130" fill="#cfc853"/>
	<rect height="5" width="5" x="35" y="130" fill="#cfc853"/>
	<rect height="5" width="5" x="45" y="130" fill="#cfc853"/>
	<rect height="5" width="5" x="55" y="130" fill="#cfc853"/>
	<rect height="5" width="5" x="65" y="130" fill="#cfc853"/>
	<rect height="5" width="5" x="85" y="130" fill="#cfc853"/>
	<rect height="5" width="5" x="25" y="140" fill="#cfc853"/>
	<rect height="5" width="5" x="35" y="140" fill="#cfc853"/>
	<rect height="5" width="5" x="45" y="140" fill="#cfc853"/>
	<rect height="5" width="5" x="55" y="140" fill="#cfc853"/>
	<rect height="5" width="5" x="65" y="140" fill="#cfc853"/>
	<rect height="5" width="5" x="75" y="140" fill="#cfc853"/>
	<rect height="5" width="5" x="85" y="140" fill="#cfc853"/>
	<rect height="5" width="5" x="25" y="160" fill="#cfc853"/>
	<rect height="5" width="5" x="35" y="160" fill="#cfc853"/>
	<rect height="5" width="5" x="45" y="160" fill="#cfc853"/>
	<rect height="5" width="5" x="75" y="160" fill="#cfc853"/>
	<rect height="5" width="5" x="95" y="160" fill="#cfc853"/>
	<rect height="5" width="5" x="105" y="160" fill="#cfc853"/>
	<rect height="5" width="5" x="115" y="160" fill="#cfc853"/>
	<rect height="5" width="5" x="135" y="160" fill="#cfc853"/>
	<rect height="5" width="5" x="25" y="170" fill="#cfc853"/>
	<rect height="5" width="5" x="35" y="170" fill="#cfc853"/>
	<rect height="5" width="5" x="65" y="170" fill="#cfc853"/>
	<rect height="5" width="5" x="75" y="170" fill="#cfc853"/>
	<rect height="5" width="5" x="85" y="170" fill="#cfc853"/>
	<rect height="5" width="5" x="95" y="170" fill="#cfc853"/>
	<rect height="5" width="5" x="125" y="170" fill="#cfc853"/>
	<rect height="5" width="5" x="135" y="170" fill="#cfc853"/>
	<rect height="5" width="5" x="35" y="180" fill="#cfc853"/>
	<rect height="5" width="5" x="45" y="180" fill="#cfc853"/>
	<rect height="5" width="5" x="55" y="180" fill="#cfc853"/>
	<rect height="5" width="5" x="65" y="180" fill="#cfc853"/>
	<rect height="5" width="5" x="85" y="180" fill="#cfc853"/>
	<rect height="5" width="5" x="95" y="180" fill="#cfc853"/>
	<rect height="5" width="5" x="105" y="180" fill="#cfc853"/>
	<rect height="5" width="5" x="115" y="180" fill="#cfc853"/>
	<rect height="5" width="5" x="25" y="190" fill="#cfc853"/>
	<rect height="5" width="5" x="35" y="190" fill="#cfc853"/>
	<rect height="5" width="5" x="65" y="190" fill="#cfc853"/>
	<rect height="5" width="5" x="95" y="190" fill="#cfc853"/>
	<rect height="5" width="5" x="105" y="190" fill="#cfc853"/>
	<rect height="5" width="5" x="115" y="190" fill="#cfc853"/>
	<rect height="5" width="5" x="135" y="190" fill="#cfc853"/>
	<rect height="5" width="5" x="55" y="200" fill="#cfc853"/>
	<rect height="5" width="5" x="65" y="200" fill="#cfc853"/>
	<rect height="5" width="5" x="75" y="200" fill="#cfc853"/>
	<rect height="5" width="5" x="85" y="200" fill="#cfc853"/>
	<rect height="5" width="5" x="105" y="200" fill="#cfc853"/>
	<rect height="5" width="5" x="115" y="200" fill="#cfc853"/>
	<rect height="5" width="5" x="125" y="200" fill="#cfc853"/>
	<rect height="5" width="5" x="135" y="200" fill="#cfc853"/>
	<rect height="5" width="5" x="25" y="210" fill="#cfc853"/>
	<rect height="5" width="5" x="35" y="210" fill="#cfc853"/>
	<rect height="5" width="5" x="45" y="210" fill="#cfc853"/>
	<rect height="5" width="5" x="65" y="210" fill="#cfc853"/>
	<rect height="5" width="5" x="75" y="210" fill="#cfc853"/>
	<rect height="5" width="5" x="85" y="210" fill="#cfc853"/>
	<rect height="5" width="5" x="95" y="210" fill="#cfc853"/>
	<rect height="5" width="5" x="105" y="210" fill="#cfc853"/>
	<rect height="5" width="5" x="135" y="210" fill="#cfc853"/>
	<rect height="5" width="5" x="35" y="220" fill="#cfc853"/>
	<rect height="5" width="5" x="45" y="220" fill="#cfc853"/>
	<rect height="5" width="5" x="55" y="220" fill="#cfc853"/>
	<rect height="5" width="5" x="65" y="220" fill="#cfc853"/>
	<rect height="5" width="5" x="75" y="220" fill="#cfc853"/>
	<rect height="5" width="5" x="95" y="220" fill="#cfc853"/>
	<rect height="5" width="5" x="105" y="220" fill="#cfc853"/>
	<rect height="5" width="5" x="115" y="220" fill="#cfc853"/>
	<rect height="5" width="5" x="125" y="220" fill="#cfc853"/>
	<rect height="5" width="5" x="135" y="220" fill="#cfc853"/>
	<rect height="5" width="5" x="25" y="230" fill="#cfc853"/>
	<rect height="5" width="5" x="55" y="230" fill="#cfc853"/>
	<rect height="5" width="5" x="65" y="230" fill="#cfc853"/>
	<rect height="5" width="5" x="75" y="230" fill="#cfc853"/>
	<rect height="5" width="5" x="105" y="230" fill="#cfc853"/>
	<rect height="5" width="5" x="115" y="230" fill="#cfc853"/>
	<rect height="5" width="5" x="125" y="230" fill="#cfc853"/>
	<rect height="5" width="5" x="25" y="240" fill="#cfc853"/>
	<rect height="5" width="5" x="45" y="240" fill="#cfc853"/>
	<rect height="5" width="5" x="55" y="240" fill="#cfc853"/>
	<rect height="5" width="5" x="65" y="240" fill="#cfc853"/>
	<rect height="5" width="5" x="75" y="240" fill="#cfc853"/>
	<rect height="5" width="5" x="85" y="240" fill="#cfc853"/>
	<rect height="5" width="5" x="95" y="240" fill="#cfc853"/>
	<rect height="5" width="5" x="125" y="240" fill="#cfc853"/>
	<rect height="5" width="5" x="135" y="240" fill="#cfc853"/>
	<rect height="5" width="5" x="45" y="260" fill="#cfc853"/>
	<rect height="5" width="5" x="55" y="260" fill="#cfc853"/>
	<rect height="5" width="5" x="65" y="260" fill="#cfc853"/>
	<rect height="5" width="5" x="75" y="260" fill="#cfc853"/>
	<rect height="5" width="5" x="95" y="260" fill="#cfc853"/>
	<rect height="5" width="5" x="105" y="260" fill="#cfc853"/>
	<rect height="5" width="5" x="125" y="260" fill="#cfc853"/>
	<rect height="5" width="5" x="135" y="260" fill="#cfc853"/>
	<rect height="5" width="5" x="25" y="270" fill="#cfc853"/>
	<rect height="5" width="5" x="35" y="270" fill="#cfc853"/>
	<rect height="5" width="5" x="75" y="270" fill="#cfc853"/>
	<rect height="5" width="5" x="85" y="270" fill="#cfc853"/>
	<rect height="5" width="5" x="95" y="270" fill="#cfc853"/>
	<rect height="5" width="5" x="125" y="270" fill="#cfc853"/>
	<rect height="5" width="5" x="135" y="270" fill="#cfc853"/>
	<rect height="5" width="5" x="35" y="280" fill="#cfc853"/>
	<rect height="5" width="5" x="45" y="280" fill="#cfc853"/>
	<rect height="5" width="5" x="55" y="280" fill="#cfc853"/>
	<rect height="5" width="5" x="75" y="280" fill="#cfc853"/>
	<rect height="5" width="5" x="95" y="280" fill="#cfc853"/>
	<rect height="5" width="5" x="105" y="280" fill="#cfc853"/>
	<rect height="5" width="5" x="115" y="280" fill="#cfc853"/>
	<rect height="5" width="5" x="25" y="290" fill="#cfc853"/>
	<rect height="5" width="5" x="45" y="290" fill="#cfc853"/>
	<rect height="5" width="5" x="55" y="290" fill="#cfc853"/>
	<rect height="5" width="5" x="75" y="290" fill="#cfc853"/>
	<rect height="5" width="5" x="95" y="290" fill="#cfc853"/>
	<rect height="5" width="5" x="115" y="290" fill="#cfc853"/>
	<rect height="5" width="5" x="125" y="290" fill="#cfc853"/>
	<rect height="5" width="5" x="25" y="300" fill="#cfc853"/>
	<rect height="5" width="5" x="35" y="300" fill="#cfc853"/>
	<rect height="5" width="5" x="45" y="300" fill="#cfc853"/>
	<rect height="5" width="5" x="55" y="300" fill="#cfc853"/>
	<rect height="5" width="5" x="65" y="300" fill="#cfc853"/>
	<rect height="5" width="5" x="75" y="300" fill="#cfc853"/>
	<rect height="5" width="5" x="85" y="300" fill="#cfc853"/>
	<rect height="5" width="5" x="105" y="300" fill="#cfc853"/>
	<rect height="5" width="5" x="115" y="300" fill="#cfc853"/>
	<rect height="5" width="5" x="125" y="300" fill="#cfc853"/>
	<rect height="5" width="5" x="135" y="300" fill="#cfc853"/>
	<rect height="5" width="5" x="25" y="310" fill="#cfc853"/>
	<rect height="5" width="5" x="45" y="310" fill="#cfc853"/>
	<rect height="5" width="5" x="55" y="310" fill="#cfc853"/>
	<rect height="5" width="5" x="65" y="310" fill="#cfc853"/>
	<rect height="5" width="5" x="95" y="310" fill="#cfc853"/>
	<rect height="5" width="5" x="125" y="310" fill="#cfc853"/>
	<rect height="5" width="5" x="135" y="310" fill="#cfc853"/>
	<rect height="5" width="5" x="35" y="320" fill="#cfc853"/>
	<rect height="5" width="5" x="55" y="320" fill="#cfc853"/>
	<rect height="5" width="5" x="65" y="320" fill="#cfc853"/>
	<rect height="5" width="5" x="85" y="320" fill="#cfc853"/>
	<rect height="5" width="5" x="95" y="320" fill="#cfc853"/>
	<rect height="5" width="5" x="105" y="320" fill="#cfc853"/>
	<rect height="5" width="5" x="115" y="320" fill="#cfc853"/>
	<rect height="5" width="5" x="35" y="330" fill="#cfc853"/>
	<rect height="5" width="5" x="45" y="330" fill="#cfc853"/>
	<rect height="5" width="5" x="55" y="330" fill="#cfc853"/>
	<rect height="5" width="5" x="85" y="330" fill="#cfc853"/>
	<rect height="5" width="5" x="95" y="330" fill="#cfc853"/>
	<rect height="5" width="5" x="105" y="330" fill="#cfc853"/>
	<rect height="5" width="5" x="125" y="330" fill="#cfc853"/>
	<rect height="5" width="5" x="135" y="330" fill="#cfc853"/>
	<rect height="5" width="5" x="25" y="340" fill="#cfc853"/>
	<rect height="5" width="5" x="65" y="340" fill="#cfc853"/>
	<rect height="5" width="5" x="75" y="340" fill="#cfc853"/>
	<rect height="5" width="5" x="85" y="340" fill="#cfc853"/>
	<rect height="5" width="5" x="95" y="340" fill="#cfc853"/>
	<rect height="5" width="5" x="105" y="340" fill="#cfc853"/>
	<rect height="5" width="5" x="115" y="340" fill="#cfc853"/>
	<rect height="5" width="5" x="135" y="340" fill="#cfc853"/>
	<rect height="5" width="5" x="25" y="360" fill="#cfc853"/>
	<rect height="5" width="5" x="45" y="360" fill="#cfc853"/>
	<rect height="5" width="5" x="65" y="360" fill="#cfc853"/>
	<rect height="5" width="5" x="75" y="360" fill="#cfc853"/>
	<rect height="5" width="5" x="95" y="360" fill="#cfc853"/>
	<rect height="5" width="5" x="105" y="360" fill="#cfc853"/>
	<rect height="5" width="5" x="125" y="360" fill="#cfc853"/>
	<rect height="5" width="5" x="135" y="360" fill="#cfc853"/>
	<rect height="5" width="5" x="25" y="370" fill="#cfc853"/>
	<rect height="5" width="5" x="35" y="370" fill="#cfc853"/>
	<rect height="5" width="5" x="65" y="370" fill="#cfc853"/>
	<rect height="5" width="5" x="75" y="370" fill="#cfc853"/>
	<rect height="5" width="5" x="85" y="370" fill="#cfc853"/>
	<rect height="5" width="5" x="105" y="370" fill="#cfc853"/>
	<rect height="5" width="5" x="115" y="370" fill="#cfc853"/>
	<rect height="5" width="5" x="25" y="380" fill="#cfc853"/>
	<rect height="5" width="5" x="35" y="380" fill="#cfc853"/>
	<rect height="5" width="5" x="45" y="380" fill="#cfc853"/>
	<rect height="5" width="5" x="55" y="380" fill="#cfc853"/>
	<rect height="5" width="5" x="65" y="380" fill="#cfc853"/>
	<rect height="5" width="5" x="75" y="380" fill="#cfc853"/>
	<rect height="5" width="5" x="95" y="380" fill="#cfc853"/>
	<rect height="5" width="5" x="105" y="380" fill="#cfc853"/>
	<rect height="5" width="5" x="115" y="380" fill="#cfc853"/>
	<rect height="5" width="5" x="125" y="380" fill="#cfc853"/>
	<rect height="5" width="5" x="135" y="380" fill="#cfc853"/>

	<!-- Building 2 -->
	<polygon points="180,400 180,300 190,300 190,290 200,290 200,150 204,150 204,290 210,290 210,240 260,200 310,240 310,290 320,290 320,300 336,300 336,150 340,150 340,400 180,400" style="fill: #0b2238"/>
	<rect height="50" width="10" x="247" y="230" fill="#cfc853"/>
	<rect height="50" width="10" x="263" y="230" fill="#cfc853"/>
	<rect height="50" width="15" x="190" y="330" fill="#cfc853"/>
	<rect height="50" width="15" x="220" y="330" fill="#cfc853"/>
	<rect height="50" width="15" x="285" y="330" fill="#cfc853"/>
	<rect height="50" width="15" x="315" y="330" fill="#cfc853"/>
	
	<!-- Building 3 -->
	<polygon points="360,400 360,100 370,100 370,80 410,80 410,70 420,70 420,80 430,80 430,100 430,100 440,100 440,400 360,400" style="fill: #0b2238"/>
	<rect height="5" width="5" x="395" y="110" fill="#cfc853"/>
	<rect height="5" width="5" x="395" y="120" fill="#cfc853"/>
	<rect height="5" width="5" x="405" y="120" fill="#cfc853"/>
	<rect height="5" width="5" x="415" y="120" fill="#cfc853"/>
	<rect height="5" width="5" x="425" y="120" fill="#cfc853"/>
	<rect height="5" width="5" x="385" y="130" fill="#cfc853"/>
	<rect height="5" width="5" x="395" y="130" fill="#cfc853"/>
	<rect height="5" width="5" x="375" y="140" fill="#cfc853"/>
	<rect height="5" width="5" x="385" y="140" fill="#cfc853"/>
	<rect height="5" width="5" x="405" y="140" fill="#cfc853"/>
	<rect height="5" width="5" x="415" y="140" fill="#cfc853"/>
	<rect height="5" width="5" x="425" y="140" fill="#cfc853"/>
	<rect height="5" width="5" x="385" y="150" fill="#cfc853"/>
	<rect height="5" width="5" x="405" y="150" fill="#cfc853"/>
	<rect height="5" width="5" x="415" y="150" fill="#cfc853"/>
	<rect height="5" width="5" x="425" y="150" fill="#cfc853"/>
	<rect height="5" width="5" x="405" y="160" fill="#cfc853"/>
	<rect height="5" width="5" x="425" y="160" fill="#cfc853"/>
	<rect height="5" width="5" x="405" y="170" fill="#cfc853"/>
	<rect height="5" width="5" x="415" y="170" fill="#cfc853"/>
	<rect height="5" width="5" x="425" y="170" fill="#cfc853"/>
	<rect height="5" width="5" x="375" y="180" fill="#cfc853"/>
	<rect height="5" width="5" x="385" y="180" fill="#cfc853"/>
	<rect height="5" width="5" x="395" y="180" fill="#cfc853"/>
	<rect height="5" width="5" x="405" y="180" fill="#cfc853"/>
	<rect height="5" width="5" x="415" y="180" fill="#cfc853"/>
	<rect height="5" width="5" x="425" y="180" fill="#cfc853"/>
	<rect height="5" width="5" x="375" y="190" fill="#cfc853"/>
	<rect height="5" width="5" x="395" y="190" fill="#cfc853"/>
	<rect height="5" width="5" x="415" y="190" fill="#cfc853"/>
	<rect height="5" width="5" x="375" y="200" fill="#cfc853"/>
	<rect height="5" width="5" x="385" y="200" fill="#cfc853"/>
	<rect height="5" width="5" x="395" y="200" fill="#cfc853"/>
	<rect height="5" width="5" x="405" y="200" fill="#cfc853"/>
	<rect height="5" width="5" x="415" y="200" fill="#cfc853"/>
	<rect height="5" width="5" x="425" y="200" fill="#cfc853"/>
	<rect height="5" width="5" x="375" y="210" fill="#cfc853"/>
	<rect height="5" width="5" x="385" y="210" fill="#cfc853"/>
	<rect height="5" width="5" x="395" y="210" fill="#cfc853"/>
	<rect height="5" width="5" x="405" y="210" fill="#cfc853"/>
	<rect height="5" width="5" x="415" y="210" fill="#cfc853"/>
	<rect height="5" width="5" x="425" y="210" fill="#cfc853"/>
	<rect height="5" width="5" x="375" y="220" fill="#cfc853"/>
	<rect height="5" width="5" x="405" y="220" fill="#cfc853"/>
	<rect height="5" width="5" x="425" y="220" fill="#cfc853"/>
	<rect height="5" width="5" x="375" y="230" fill="#cfc853"/>
	<rect height="5" width="5" x="385" y="230" fill="#cfc853"/>
	<rect height="5" width="5" x="395" y="230" fill="#cfc853"/>
	<rect height="5" width="5" x="415" y="240" fill="#cfc853"/>
	<rect height="5" width="5" x="395" y="250" fill="#cfc853"/>
	<rect height="5" width="5" x="415" y="250" fill="#cfc853"/>
	<rect height="5" width="5" x="385" y="260" fill="#cfc853"/>
	<rect height="5" width="5" x="395" y="260" fill="#cfc853"/>
	<rect height="5" width="5" x="405" y="260" fill="#cfc853"/>
	<rect height="5" width="5" x="415" y="260" fill="#cfc853"/>
	<rect height="5" width="5" x="425" y="260" fill="#cfc853"/>
	<rect height="5" width="5" x="385" y="270" fill="#cfc853"/>
	<rect height="5" width="5" x="395" y="270" fill="#cfc853"/>
	<rect height="5" width="5" x="405" y="270" fill="#cfc853"/>
	<rect height="5" width="5" x="415" y="270" fill="#cfc853"/>
	<rect height="5" width="5" x="425" y="270" fill="#cfc853"/>
	<rect height="5" width="5" x="385" y="280" fill="#cfc853"/>
	<rect height="5" width="5" x="395" y="280" fill="#cfc853"/>
	<rect height="5" width="5" x="405" y="280" fill="#cfc853"/>
	<rect height="5" width="5" x="415" y="280" fill="#cfc853"/>
	<rect height="5" width="5" x="425" y="280" fill="#cfc853"/>
	<rect height="5" width="5" x="415" y="290" fill="#cfc853"/>
	<rect height="5" width="5" x="385" y="300" fill="#cfc853"/>
	<rect height="5" width="5" x="405" y="300" fill="#cfc853"/>
	<rect height="5" width="5" x="375" y="310" fill="#cfc853"/>
	<rect height="5" width="5" x="425" y="310" fill="#cfc853"/>
	<rect height="5" width="5" x="385" y="330" fill="#cfc853"/>
	<rect height="5" width="5" x="425" y="330" fill="#cfc853"/>
	<rect height="5" width="5" x="405" y="340" fill="#cfc853"/>
	<rect height="5" width="5" x="415" y="340" fill="#cfc853"/>
	<rect height="5" width="5" x="425" y="340" fill="#cfc853"/>
	<rect height="5" width="5" x="375" y="350" fill="#cfc853"/>
	<rect height="5" width="5" x="385" y="350" fill="#cfc853"/>
	<rect height="5" width="5" x="395" y="350" fill="#cfc853"/>
	<rect height="5" width="5" x="375" y="360" fill="#cfc853"/>
	<rect height="5" width="5" x="405" y="360" fill="#cfc853"/>
	<rect height="5" width="5" x="425" y="360" fill="#cfc853"/>
	<rect height="5" width="5" x="425" y="370" fill="#cfc853"/>
	<rect height="5" width="5" x="375" y="380" fill="#cfc853"/>
	<rect height="5" width="5" x="415" y="380" fill="#cfc853"/>
	
	<!-- Building 4 -->
	<polygon points="460,400 460,114 470,114 470,112 460,112 460,100 470,100 470,70 472,70 472,100 480,100 480,90 520,90 520,100 540,100 540,112 530,112 530,114 540,114 540,400 460,400" style="fill: #0b2238"/>
	<rect height="5" width="5" x="485" y="110" fill="#cfc853"/>
	<rect height="5" width="5" x="485" y="120" fill="#cfc853"/>
	<rect height="5" width="5" x="505" y="120" fill="#cfc853"/>
	<rect height="5" width="5" x="515" y="120" fill="#cfc853"/>
	<rect height="5" width="5" x="525" y="120" fill="#cfc853"/>
	<rect height="5" width="5" x="475" y="130" fill="#cfc853"/>
	<rect height="5" width="5" x="485" y="130" fill="#cfc853"/>
	<rect height="5" width="5" x="465" y="140" fill="#cfc853"/>
	<rect height="5" width="5" x="475" y="140" fill="#cfc853"/>
	<rect height="5" width="5" x="505" y="140" fill="#cfc853"/>
	<rect height="5" width="5" x="515" y="140" fill="#cfc853"/>
	<rect height="5" width="5" x="525" y="140" fill="#cfc853"/>
	<rect height="5" width="5" x="475" y="150" fill="#cfc853"/>
	<rect height="5" width="5" x="505" y="150" fill="#cfc853"/>
	<rect height="5" width="5" x="515" y="150" fill="#cfc853"/>
	<rect height="5" width="5" x="525" y="150" fill="#cfc853"/>
	<rect height="5" width="5" x="505" y="160" fill="#cfc853"/>
	<rect height="5" width="5" x="525" y="160" fill="#cfc853"/>
	<rect height="5" width="5" x="505" y="170" fill="#cfc853"/>
	<rect height="5" width="5" x="515" y="170" fill="#cfc853"/>
	<rect height="5" width="5" x="525" y="170" fill="#cfc853"/>
	<rect height="5" width="5" x="465" y="180" fill="#cfc853"/>
	<rect height="5" width="5" x="475" y="180" fill="#cfc853"/>
	<rect height="5" width="5" x="485" y="180" fill="#cfc853"/>
	<rect height="5" width="5" x="505" y="180" fill="#cfc853"/>
	<rect height="5" width="5" x="515" y="180" fill="#cfc853"/>
	<rect height="5" width="5" x="525" y="180" fill="#cfc853"/>
	<rect height="5" width="5" x="465" y="190" fill="#cfc853"/>
	<rect height="5" width="5" x="485" y="190" fill="#cfc853"/>
	<rect height="5" width="5" x="515" y="190" fill="#cfc853"/>
	<rect height="5" width="5" x="465" y="200" fill="#cfc853"/>
	<rect height="5" width="5" x="475" y="200" fill="#cfc853"/>
	<rect height="5" width="5" x="485" y="200" fill="#cfc853"/>
	<rect height="5" width="5" x="505" y="200" fill="#cfc853"/>
	<rect height="5" width="5" x="515" y="200" fill="#cfc853"/>
	<rect height="5" width="5" x="525" y="200" fill="#cfc853"/>
	<rect height="5" width="5" x="465" y="210" fill="#cfc853"/>
	<rect height="5" width="5" x="475" y="210" fill="#cfc853"/>
	<rect height="5" width="5" x="485" y="210" fill="#cfc853"/>
	<rect height="5" width="5" x="505" y="210" fill="#cfc853"/>
	<rect height="5" width="5" x="515" y="210" fill="#cfc853"/>
	<rect height="5" width="5" x="525" y="210" fill="#cfc853"/>
	<rect height="5" width="5" x="465" y="220" fill="#cfc853"/>
	<rect height="5" width="5" x="505" y="220" fill="#cfc853"/>
	<rect height="5" width="5" x="525" y="220" fill="#cfc853"/>
	<rect height="5" width="5" x="465" y="230" fill="#cfc853"/>
	<rect height="5" width="5" x="475" y="230" fill="#cfc853"/>
	<rect height="5" width="5" x="485" y="230" fill="#cfc853"/>
	<rect height="5" width="5" x="515" y="240" fill="#cfc853"/>
	<rect height="5" width="5" x="485" y="250" fill="#cfc853"/>
	<rect height="5" width="5" x="515" y="250" fill="#cfc853"/>
	<rect height="5" width="5" x="475" y="260" fill="#cfc853"/>
	<rect height="5" width="5" x="485" y="260" fill="#cfc853"/>
	<rect height="5" width="5" x="505" y="260" fill="#cfc853"/>
	<rect height="5" width="5" x="515" y="260" fill="#cfc853"/>
	<rect height="5" width="5" x="525" y="260" fill="#cfc853"/>
	<rect height="5" width="5" x="475" y="270" fill="#cfc853"/>
	<rect height="5" width="5" x="485" y="270" fill="#cfc853"/>
	<rect height="5" width="5" x="505" y="270" fill="#cfc853"/>
	<rect height="5" width="5" x="515" y="270" fill="#cfc853"/>
	<rect height="5" width="5" x="525" y="270" fill="#cfc853"/>
	<rect height="5" width="5" x="475" y="280" fill="#cfc853"/>
	<rect height="5" width="5" x="485" y="280" fill="#cfc853"/>
	<rect height="5" width="5" x="505" y="280" fill="#cfc853"/>
	<rect height="5" width="5" x="515" y="280" fill="#cfc853"/>
	<rect height="5" width="5" x="525" y="280" fill="#cfc853"/>
	<rect height="5" width="5" x="515" y="290" fill="#cfc853"/>
	<rect height="5" width="5" x="475" y="300" fill="#cfc853"/>
	<rect height="5" width="5" x="505" y="300" fill="#cfc853"/>
	<rect height="5" width="5" x="465" y="310" fill="#cfc853"/>
	<rect height="5" width="5" x="525" y="310" fill="#cfc853"/>
	<rect height="5" width="5" x="475" y="330" fill="#cfc853"/>
	<rect height="5" width="5" x="525" y="330" fill="#cfc853"/>
	<rect height="5" width="5" x="505" y="340" fill="#cfc853"/>
	<rect height="5" width="5" x="515" y="340" fill="#cfc853"/>
	<rect height="5" width="5" x="525" y="340" fill="#cfc853"/>
	<rect height="5" width="5" x="465" y="350" fill="#cfc853"/>
	<rect height="5" width="5" x="475" y="350" fill="#cfc853"/>
	<rect height="5" width="5" x="485" y="350" fill="#cfc853"/>
	<rect height="5" width="5" x="465" y="360" fill="#cfc853"/>
	<rect height="5" width="5" x="505" y="360" fill="#cfc853"/>
	<rect height="5" width="5" x="525" y="360" fill="#cfc853"/>
	<rect height="5" width="5" x="525" y="370" fill="#cfc853"/>
	<rect height="5" width="5" x="465" y="380" fill="#cfc853"/>
	<rect height="5" width="5" x="515" y="380" fill="#cfc853"/>
</svg>