<svg xmlns="http://www.w3.org/2000/svg" version="1.1" width="550" height="600">
	<!-- Building shadow1 -->
	<polygon points="0,600 0,50 40,0 100,50 100,150 140,200 140,600" style="fill: #2f5b82; fill-opacity: 0.4" />
	<rect height="5" width="5" x="25" y="50" style="fill: #cfc853; fill-opacity: 0.4" />
	<rect height="5" width="5" x="35" y="50" style="fill: #cfc853; fill-opacity: 0.4" />
	<rect height="5" width="5" x="35" y="60" style="fill: #cfc853; fill-opacity: 0.4" />
	<rect height="5" width="5" x="35" y="80" style="fill: #cfc853; fill-opacity: 0.4" />
	<rect height="5" width="5" x="25" y="80" style="fill: #cfc853; fill-opacity: 0.4" />
	<rect height="5" width="5" x="5" y="80" style="fill: #cfc853; fill-opacity: 0.4" />
	<rect height="5" width="5" x="25" y="90" style="fill: #cfc853; fill-opacity: 0.4" />
	<rect height="5" width="5" x="35" y="100" style="fill: #cfc853; fill-opacity: 0.4" />
	<rect height="5" width="5" x="25" y="100" style="fill: #cfc853; fill-opacity: 0.4" />
	<rect height="5" width="5" x="5" y="100" style="fill: #cfc853; fill-opacity: 0.4" />
	<rect height="5" width="5" x="25" y="110" style="fill: #cfc853; fill-opacity: 0.4" />
	<rect height="5" width="5" x="35" y="110" style="fill: #cfc853; fill-opacity: 0.4" />
	<rect height="5" width="5" x="35" y="120" style="fill: #cfc853; fill-opacity: 0.4" />
	<rect height="5" width="5" x="35" y="140" style="fill: #cfc853; fill-opacity: 0.4" />
	<rect height="5" width="5" x="25" y="140" style="fill: #cfc853; fill-opacity: 0.4" />
	<rect height="5" width="5" x="5" y="140" style="fill: #cfc853; fill-opacity: 0.4" />
	<rect height="5" width="5" x="25" y="150" style="fill: #cfc853; fill-opacity: 0.4" />
	<rect height="5" width="5" x="35" y="160" style="fill: #cfc853; fill-opacity: 0.4" />
	<rect height="5" width="5" x="25" y="160" style="fill: #cfc853; fill-opacity: 0.4" />
	<rect height="5" width="5" x="5" y="160" style="fill: #cfc853; fill-opacity: 0.4" />
	<rect height="5" width="5" x="25" y="170" style="fill: #cfc853; fill-opacity: 0.4" />
	<rect height="5" width="5" x="35" y="170" style="fill: #cfc853; fill-opacity: 0.4" />
	<rect height="5" width="5" x="35" y="180" style="fill: #cfc853; fill-opacity: 0.4" />
	<rect height="5" width="5" x="35" y="200" style="fill: #cfc853; fill-opacity: 0.4" />
	<rect height="5" width="5" x="25" y="200" style="fill: #cfc853; fill-opacity: 0.4" />
	<rect height="5" width="5" x="5" y="200" style="fill: #cfc853; fill-opacity: 0.4" />
	<rect height="5" width="5" x="25" y="210" style="fill: #cfc853; fill-opacity: 0.4" />
	<rect height="5" width="5" x="35" y="220" style="fill: #cfc853; fill-opacity: 0.4" />
	<rect height="5" width="5" x="25" y="220" style="fill: #cfc853; fill-opacity: 0.4" />
	<rect height="5" width="5" x="5" y="220" style="fill: #cfc853; fill-opacity: 0.4" />
	
	<!-- Building shadow2 -->
	<polygon points="150,600 150,200 160,200 160,190 160,150 190,150 190,100 210,70 250,70 250,600 150,600" style="fill: #2f5b82; fill-opacity: 0.4" />
	<polygon points="260,600 260,50 320,50 370,100 370,600 260,600" style="fill: #2f5b82; fill-opacity: 0.4" />
	<polygon points="390,600 390,200 400,200 400,190 410,190 410,85 415,85 415,80 425,80 425,70 500,50 500,80 510,80 510,250 530,250 530,600 390,600" style="fill: #2f5b82; fill-opacity: 0.4" />
</svg>