<!-- Crossroads -->
<svg xmlns="http://www.w3.org/2000/svg" version="1.1" width="100" height="60">
  <g id="outline" fill="none">
    <path d="M 50,0 L 100,30 L 50,60 L 0,30 L 50,0" fill="lightgrey" stroke-width="1" stroke="none"/>
  </g>
  <g id="crossroads" fill="none">
    <path d="M 40,30 L 20,18 L 30,12 L 50,24 L 70,12 L 80,18 L 60,30 L 80,42 L 70,48 L 50,36 L 30,48 L 20,42 L 40,30" fill="#727272"/>
    <!-- Divider -->
    <line x1="45" y1="27" x2="25" y2="15" stroke-dasharray="3 3" stroke-width="1" stroke="#d2b746"/>
    <line x1="55" y1="27" x2="75" y2="15" stroke-dasharray="3 3" stroke-width="1" stroke="#d2b746"/>
    <line x1="55" y1="33" x2="75" y2="45" stroke-dasharray="3 3" stroke-width="1" stroke="#d2b746"/>
    <line x1="45" y1="33" x2="25" y2="45" stroke-dasharray="3 3" stroke-width="1" stroke="#d2b746"/>
    <!-- Footpath -->
    <path d="M 35,9 L 50,18 L 65,9 L 50,0 L 35,9" fill="#8cb835"/>
    <polyline points="35,9 50,18 65,9" fill="none" stroke-width="1" stroke="#68a81e"/>
    <path d="M 85,21 L 70,30 L 85,39 L 100,30 L 85,21" fill="#8cb835"/>
    <polyline points="70,30 85,39" fill="none" stroke-width="1" stroke="#68a81e"/>
    <!--<path d="M 35,9 L 50,18 L 65,9 L 50,0 L 35,9" fill="#8cb835"/>
    <polyline points="35,9 50,18 65,9" fill="none" stroke-width="1" stroke="#68a81e"/>
    <path d="M 35,9 L 50,18 L 65,9 L 50,0 L 35,9" fill="#8cb835"/>
    <polyline points="35,9 50,18 65,9" fill="none" stroke-width="1" stroke="#68a81e"/>-->
  </g>
  
</svg>